<svg width="167" height="31" viewBox="0 0 167 31" fill="none" xmlns="http://www.w3.org/2000/svg">
<path d="M53.985 14.6954H45.6875L49.8323 7.31628L53.985 0L58.1377 7.31628L62.2905 14.6954H53.985Z" fill="#479BCB"/>
<path d="M64.3786 15.92H80.9815L89.279 30.5447H72.6761L64.3786 15.92Z" fill="#479BCB"/>
<path d="M96.666 15.7476H99.4685V28.0879H106.785V30.5764H96.666V15.7476Z" fill="#007CBA"/>
<path d="M108.959 15.7473H111.762V30.5761H108.959V15.7473Z" fill="#007CBA"/>
<path d="M115.961 26.3998C116.142 26.6039 116.354 26.8237 116.597 27.0592C116.841 27.2869 117.115 27.5067 117.422 27.7029C117.728 27.8992 118.065 28.0719 118.442 28.2054C118.819 28.3388 119.243 28.4016 119.722 28.4016C120.593 28.4016 121.245 28.2054 121.669 27.805C122.092 27.4046 122.304 26.9258 122.304 26.3606C122.304 26.0466 122.242 25.7718 122.124 25.5285C122.006 25.2851 121.802 25.0732 121.527 24.8848C121.245 24.6964 120.876 24.5315 120.428 24.3824C119.973 24.2332 119.416 24.0919 118.748 23.9585C118.065 23.825 117.477 23.6209 116.982 23.3383C116.487 23.0557 116.071 22.726 115.75 22.3413C115.42 21.9567 115.176 21.5328 115.019 21.0618C114.862 20.5908 114.776 20.1198 114.776 19.6252C114.776 19.06 114.878 18.5262 115.09 18.0159C115.302 17.5057 115.616 17.0504 116.048 16.6579C116.48 16.2654 117.013 15.9514 117.657 15.7159C118.301 15.4804 119.062 15.3626 119.934 15.3626C120.719 15.3626 121.394 15.449 121.959 15.6295C122.524 15.8101 122.995 16.0142 123.372 16.2497C123.749 16.4852 124.039 16.7207 124.251 16.9483C124.455 17.176 124.604 17.3487 124.699 17.4507L122.854 19.1856C122.783 19.1228 122.658 19.0208 122.501 18.8638C122.336 18.7067 122.132 18.5576 121.888 18.4084C121.645 18.2593 121.355 18.1258 121.009 18.0081C120.672 17.8903 120.287 17.8275 119.855 17.8275C119.47 17.8275 119.133 17.8825 118.858 17.9845C118.576 18.0866 118.34 18.22 118.16 18.3849C117.971 18.5497 117.838 18.7303 117.751 18.9266C117.665 19.1228 117.618 19.3191 117.618 19.4918C117.618 19.7587 117.665 19.9942 117.759 20.2061C117.853 20.4102 118.018 20.6065 118.246 20.787C118.474 20.9676 118.788 21.1246 119.188 21.2659C119.588 21.4072 120.091 21.5328 120.703 21.6584C121.284 21.7761 121.833 21.9567 122.367 22.1922C122.901 22.4277 123.372 22.7338 123.78 23.1185C124.188 23.4953 124.51 23.9585 124.761 24.5001C125.005 25.0418 125.13 25.6933 125.13 26.4469C125.13 27.0985 124.997 27.7029 124.73 28.2446C124.463 28.7941 124.094 29.273 123.615 29.689C123.144 30.1051 122.579 30.4269 121.928 30.6546C121.276 30.8822 120.562 31 119.792 31C119.054 31 118.379 30.9136 117.783 30.7331C117.186 30.5525 116.644 30.3327 116.158 30.058C115.679 29.7832 115.263 29.4849 114.91 29.1552C114.564 28.8255 114.266 28.5194 114.03 28.2211L115.961 26.3998Z" fill="#007CBA"/>
<path d="M131.104 18.2122H126.08V15.7473H138.931V18.2122H133.907V30.5761H131.104V18.2122Z" fill="#007CBA"/>
<path d="M140.995 15.7473H150.596V18.2122H143.79V21.7055H148.791V24.194H143.79V28.0641H151.106V30.5761H140.988V15.7473H140.995Z" fill="#007CBA"/>
<path d="M153.626 15.7473H156.452L163.635 26.2821V15.7473H166.367V30.5761H163.612L156.366 19.9078V30.5761H153.634V15.7473H153.626Z" fill="#007CBA"/>
<path d="M99.4528 11.7202H96.6738C96.6738 11.7202 96.6738 3.96436 96.6738 1.13048C97.9063 0.43182 99.7746 0.0628662 101.541 0.0628662C102.773 0.0628662 103.684 0.329769 104.273 0.706573C105.285 0.329769 106.518 0.0628662 107.695 0.0628662C111.33 0.0628662 111.872 2.04109 111.872 4.39611V11.7281H109.038V4.60022C109.038 3.10085 108.661 2.30014 107.114 2.30014C106.683 2.30014 105.992 2.41004 105.513 2.67695C105.623 3.21075 105.67 3.74456 105.67 4.33331V11.6653H102.836V4.60022C102.836 3.1558 102.514 2.30014 100.96 2.30014C100.481 2.30014 99.7825 2.41004 99.4606 2.62199C99.4528 3.32065 99.4528 11.7202 99.4528 11.7202Z" fill="#8BBBDC"/>
<path d="M113.897 5.93467C113.897 1.75842 115.184 0 118.976 0C123.097 0 123.953 2.19017 123.953 5.66776C123.953 5.98962 123.953 6.25652 123.898 6.57837C122.618 6.79818 120.106 7.06508 118.552 7.16713L116.676 7.27703C116.786 9.09825 117.689 9.52216 119.353 9.52216C120.852 9.52216 122.242 9.36516 123.419 9.2003L123.631 11.3905C122.454 11.6024 120.899 11.8144 118.709 11.8144C114.917 11.8772 113.897 9.36515 113.897 5.93467ZM118.552 5.24386C119.298 5.18891 120.428 5.08686 121.064 5.03191C121.064 4.92201 121.064 4.71005 121.064 4.55305C121.064 3.05368 120.53 2.19802 118.921 2.19802C116.833 2.19802 116.566 3.53254 116.566 5.29881L118.552 5.24386Z" fill="#8BBBDC"/>
<path d="M17.0033 14.6954H8.69791L12.8506 7.31628L17.0033 0L21.1481 7.31628L25.3008 14.6954H17.0033Z" fill="#479BCB"/>
<path d="M53.985 15.92H62.2905L58.1377 23.2284L53.985 30.5447L49.8323 23.2284L45.6875 15.92H53.985Z" fill="#8BBBDC"/>
<path d="M27.3889 15.92H43.9919L52.2973 30.5447H35.6943L27.3889 15.92Z" fill="#479BCB"/>
<path d="M24.9005 15.92H8.29754L0 30.5447H16.6029L24.9005 15.92Z" fill="#8BBBDC"/>
<path d="M55.6807 0H72.2836L80.5812 14.6954H63.9782L55.6807 0Z" fill="#007CBA"/>
<path d="M18.691 0H35.294L43.5994 14.6954H26.9964L18.691 0Z" fill="#007CBA"/>
</svg>
